<?xml version="1.0" encoding="utf-8"?>
<!-- Generator: Adobe Illustrator 24.3.0, SVG Export Plug-In . SVG Version: 6.00 Build 0)  -->
<svg version="1.1" id="Layer_1" xmlns="http://www.w3.org/2000/svg" xmlns:xlink="http://www.w3.org/1999/xlink" x="0px" y="0px"
	 viewBox="0 0 256 256" style="enable-background:new 0 0 256 256;" xml:space="preserve">
<style type="text/css">
	.st0{fill:#FFFFFF;}
	.st1{fill:#050505;}
	.st2{fill:#CF2F4C;}
</style>
<circle class="st0" cx="128" cy="128" r="78"/>
<g>
	<g>
		<g>
			<path class="st1" d="M75.56,122.32h7.8v1.38h-6.21v3.94h5.83v1.38h-5.83v5.44h-1.58V122.32z"/>
			<path class="st1" d="M95.98,128.33c0,3.35-1.87,6.31-5.7,6.31c-3.58,0-5.57-2.76-5.57-6.24c0-3.48,2.04-6.24,5.7-6.24
				C93.86,122.14,95.98,124.73,95.98,128.33z M86.39,128.36c0,2.63,1.35,4.93,3.96,4.93c2.81,0,3.94-2.33,3.94-4.91
				c0-2.61-1.28-4.83-3.94-4.83C87.59,123.52,86.39,125.75,86.39,128.36z"/>
			<path class="st1" d="M109.09,128.33c0,3.35-1.87,6.31-5.7,6.31c-3.58,0-5.57-2.76-5.57-6.24c0-3.48,2.04-6.24,5.7-6.24
				C106.97,122.14,109.09,124.73,109.09,128.33z M99.5,128.36c0,2.63,1.35,4.93,3.96,4.93c2.81,0,3.94-2.33,3.94-4.91
				c0-2.61-1.28-4.83-3.94-4.83C100.71,123.52,99.5,125.75,99.5,128.36z"/>
			<path class="st1" d="M111.62,122.32h4.34c3.42,0,5.72,2.33,5.72,5.95c0,3.6-2.25,6.19-5.78,6.19h-4.29V122.32z M113.23,133.11
				h2.56c2.86,0,4.22-2.04,4.22-4.8c0-2.4-1.25-4.63-4.22-4.63h-2.56V133.11z"/>
		</g>
	</g>
	<rect x="129.87" y="116.04" class="st2" width="50.63" height="24.05"/>
	<g>
		<path class="st0" d="M138.89,131.42l-1.07,2.79h-3.07l4.96-12.29h3.83l5.21,12.29h-3.22l-1.15-2.79
			C144.38,131.42,138.89,131.42,138.89,131.42z M143.54,129.02c-1.15-2.81-1.71-4.24-1.99-5.19h-0.03
			c-0.28,0.92-0.92,2.79-1.84,5.19H143.54z"/>
		<path class="st0" d="M150.34,121.91h6.36c2.86,0,4.75,1.46,4.75,3.86c0,2.5-1.79,4.01-4.8,4.01h-3.32v4.42h-2.99V121.91z
			 M153.33,127.49h3.09c1.25,0,2.07-0.43,2.07-1.66c0-1-0.61-1.61-2.07-1.61h-3.09V127.49z"/>
		<path class="st0" d="M163.55,121.91h6.36c2.86,0,4.75,1.46,4.75,3.86c0,2.5-1.79,4.01-4.8,4.01h-3.32v4.42h-2.99V121.91z
			 M166.54,127.49h3.09c1.25,0,2.07-0.43,2.07-1.66c0-1-0.61-1.61-2.07-1.61h-3.09V127.49z"/>
	</g>
</g>
</svg>
