<?xml version="1.0" encoding="utf-8"?>
<!-- Generator: Adobe Illustrator 24.3.0, SVG Export Plug-In . SVG Version: 6.00 Build 0)  -->
<svg version="1.1" id="Layer_1" xmlns="http://www.w3.org/2000/svg" xmlns:xlink="http://www.w3.org/1999/xlink" x="0px" y="0px"
	 viewBox="0 0 706 134" style="enable-background:new 0 0 706 134;" xml:space="preserve">
<style type="text/css">
	.st0{fill:#FFFFFF;}
	.st1{fill:#CF2F4C;}
</style>
<g>
	<g>
		<g>
			<path class="st0" d="M156.4,38.2h30.5v5.4h-24.3v15.4h22.8v5.4h-22.8v21.3h-6.2V38.2z"/>
			<path class="st0" d="M236.3,61.7c0,13.1-7.3,24.7-22.3,24.7c-14,0-21.8-10.8-21.8-24.4c0-13.6,8-24.4,22.3-24.4
				C228,37.5,236.3,47.6,236.3,61.7z M198.8,61.8c0,10.3,5.3,19.3,15.5,19.3c11,0,15.4-9.1,15.4-19.2c0-10.2-5-18.9-15.4-18.9
				C203.5,42.9,198.8,51.6,198.8,61.8z"/>
			<path class="st0" d="M287.6,61.7c0,13.1-7.3,24.7-22.3,24.7c-14,0-21.8-10.8-21.8-24.4c0-13.6,8-24.4,22.3-24.4
				C279.3,37.5,287.6,47.6,287.6,61.7z M250.1,61.8c0,10.3,5.3,19.3,15.5,19.3c11,0,15.4-9.1,15.4-19.2c0-10.2-5-18.9-15.4-18.9
				C254.8,42.9,250.1,51.6,250.1,61.8z"/>
			<path class="st0" d="M297.5,38.2h17c13.4,0,22.4,9.1,22.4,23.3c0,14.1-8.8,24.2-22.6,24.2h-16.8V38.2z M303.8,80.4h10
				c11.2,0,16.5-8,16.5-18.8c0-9.4-4.9-18.1-16.5-18.1h-10V80.4z"/>
		</g>
	</g>
	<rect x="357.9" y="18.6" class="st1" width="198.1" height="94.1"/>
	<g>
		<path class="st0" d="M393.2,78.8L389,89.7h-12l19.4-48.1h15l20.4,48.1h-12.6l-4.5-10.9H393.2z M411.4,69.4
			c-4.5-11-6.7-16.6-7.8-20.3h-0.1c-1.1,3.6-3.6,10.9-7.2,20.3H411.4z"/>
		<path class="st0" d="M438,41.6h24.9c11.2,0,18.6,5.7,18.6,15.1c0,9.8-7,15.7-18.8,15.7h-13v17.3H438V41.6z M449.7,63.4h12.1
			c4.9,0,8.1-1.7,8.1-6.5c0-3.9-2.4-6.3-8.1-6.3h-12.1V63.4z"/>
		<path class="st0" d="M489.7,41.6h24.9c11.2,0,18.6,5.7,18.6,15.1c0,9.8-7,15.7-18.8,15.7h-13v17.3h-11.7V41.6z M501.4,63.4h12.1
			c4.9,0,8.1-1.7,8.1-6.5c0-3.9-2.4-6.3-8.1-6.3h-12.1V63.4z"/>
	</g>
</g>
</svg>
