<?xml version="1.0" encoding="utf-8"?>
<!-- Generator: Adobe Illustrator 24.3.0, SVG Export Plug-In . SVG Version: 6.00 Build 0)  -->
<svg version="1.1" id="Layer_1" xmlns="http://www.w3.org/2000/svg" xmlns:xlink="http://www.w3.org/1999/xlink" x="0px" y="0px"
	 viewBox="0 0 700 200" style="enable-background:new 0 0 700 200;" xml:space="preserve">
<style type="text/css">
	.st0{fill:#ED1C24;}
</style>
<g>
	<path class="st0" d="M0,24.66h66.36v30.16H39.18v28.57h24.2v28.67h-24.2v63.29H0V24.66z"/>
	<path class="st0" d="M165.39,112.89c0,15.14-0.36,25.86-1.07,32.16c-0.71,6.3-2.95,12.05-6.7,17.26
		c-3.75,5.21-8.83,9.21-15.22,12.01c-6.39,2.79-13.84,4.19-22.34,4.19c-8.07,0-15.31-1.32-21.73-3.96
		c-6.42-2.64-11.59-6.59-15.5-11.87c-3.91-5.27-6.24-11.01-6.98-17.22c-0.74-6.2-1.12-17.06-1.12-32.58V87.11
		c0-15.14,0.36-25.86,1.07-32.16c0.71-6.3,2.95-12.05,6.7-17.26c3.75-5.21,8.83-9.21,15.22-12.01c6.39-2.79,13.84-4.19,22.34-4.19
		c8.07,0,15.31,1.32,21.73,3.96c6.42,2.64,11.59,6.59,15.5,11.87c3.91,5.27,6.24,11.01,6.98,17.22c0.74,6.21,1.12,17.06,1.12,32.58
		V112.89z M126.21,63.38c0-7.01-0.39-11.49-1.16-13.45c-0.78-1.95-2.37-2.93-4.79-2.93c-2.05,0-3.62,0.79-4.7,2.37
		c-1.09,1.58-1.63,6.25-1.63,14.01v70.36c0,8.75,0.36,14.15,1.07,16.19c0.71,2.05,2.37,3.07,4.98,3.07c2.67,0,4.37-1.18,5.12-3.54
		c0.74-2.36,1.12-7.97,1.12-16.85V63.38z"/>
	<path class="st0" d="M269.54,112.89c0,15.14-0.36,25.86-1.07,32.16c-0.71,6.3-2.95,12.05-6.7,17.26
		c-3.75,5.21-8.83,9.21-15.22,12.01c-6.39,2.79-13.84,4.19-22.34,4.19c-8.07,0-15.31-1.32-21.73-3.96
		c-6.42-2.64-11.59-6.59-15.5-11.87c-3.91-5.27-6.24-11.01-6.98-17.22c-0.74-6.2-1.12-17.06-1.12-32.58V87.11
		c0-15.14,0.36-25.86,1.07-32.16c0.71-6.3,2.95-12.05,6.7-17.26c3.75-5.21,8.83-9.21,15.22-12.01c6.39-2.79,13.84-4.19,22.34-4.19
		c8.07,0,15.31,1.32,21.73,3.96c6.42,2.64,11.59,6.59,15.5,11.87c3.91,5.27,6.24,11.01,6.98,17.22c0.74,6.21,1.12,17.06,1.12,32.58
		V112.89z M230.35,63.38c0-7.01-0.39-11.49-1.16-13.45c-0.78-1.95-2.37-2.93-4.79-2.93c-2.05,0-3.62,0.79-4.7,2.37
		c-1.09,1.58-1.63,6.25-1.63,14.01v70.36c0,8.75,0.36,14.15,1.07,16.19c0.71,2.05,2.37,3.07,4.98,3.07c2.67,0,4.37-1.18,5.12-3.54
		c0.74-2.36,1.12-7.97,1.12-16.85V63.38z"/>
	<path class="st0" d="M284.15,24.66h29.32c18.92,0,31.72,0.87,38.39,2.61c6.67,1.74,11.74,4.59,15.22,8.56
		c3.47,3.97,5.64,8.39,6.52,13.26c0.87,4.87,1.3,14.44,1.3,28.71v52.77c0,13.53-0.64,22.57-1.91,27.13s-3.49,8.13-6.65,10.7
		c-3.16,2.58-7.07,4.37-11.73,5.4c-4.65,1.02-11.67,1.54-21.03,1.54h-49.42V24.66z M323.33,50.44v99.12c5.65,0,9.12-1.13,10.42-3.4
		c1.3-2.26,1.95-8.42,1.95-18.47V69.15c0-6.82-0.22-11.2-0.65-13.12c-0.43-1.92-1.43-3.33-2.98-4.23
		C330.53,50.89,327.62,50.44,323.33,50.44z"/>
	<path d="M490.84,24.66l22.41,150.69H473.2l-2.1-27.08h-14.02l-2.36,27.08h-40.51l19.99-150.69H490.84z M470.07,121.55
		c-1.98-17.07-3.97-38.16-5.97-63.29c-3.99,28.85-6.5,49.95-7.52,63.29H470.07z"/>
	<path d="M519.9,24.66h39.46c10.67,0,18.88,0.84,24.62,2.51c5.74,1.68,10.05,4.1,12.94,7.26c2.89,3.16,4.84,7,5.86,11.49
		c1.02,4.5,1.54,11.46,1.54,20.89v13.12c0,9.62-0.99,16.63-2.98,21.03c-1.99,4.41-5.63,7.79-10.94,10.14
		c-5.3,2.36-12.24,3.54-20.8,3.54h-10.52v60.68H519.9V24.66z M559.09,50.44v38.35c1.12,0.06,2.08,0.09,2.89,0.09
		c3.6,0,6.1-0.88,7.49-2.65c1.4-1.77,2.09-5.44,2.09-11.03V62.82c0-5.15-0.81-8.5-2.42-10.05
		C567.52,51.22,564.18,50.44,559.09,50.44z"/>
	<path d="M615.58,24.66h39.46c10.67,0,18.88,0.84,24.62,2.51c5.74,1.68,10.05,4.1,12.94,7.26c2.89,3.16,4.84,7,5.86,11.49
		c1.02,4.5,1.54,11.46,1.54,20.89v13.12c0,9.62-0.99,16.63-2.98,21.03c-1.99,4.41-5.63,7.79-10.94,10.14
		c-5.3,2.36-12.24,3.54-20.8,3.54h-10.52v60.68h-39.18V24.66z M654.77,50.44v38.35c1.12,0.06,2.08,0.09,2.89,0.09
		c3.6,0,6.1-0.88,7.49-2.65c1.4-1.77,2.09-5.44,2.09-11.03V62.82c0-5.15-0.81-8.5-2.42-10.05C663.2,51.22,659.85,50.44,654.77,50.44
		z"/>
</g>
</svg>
